<svg width="125" height="38" viewBox="0 0 125 38" fill="none" xmlns="http://www.w3.org/2000/svg">
<path d="M123.923 33.0453C123.923 35.0187 122.337 36.6172 120.375 36.6172H4.24703C2.28579 36.6172 0.693848 35.0187 0.693848 33.0453V4.56082C0.693848 2.58836 2.28579 0.984283 4.24703 0.984283H120.374C122.337 0.984283 123.922 2.58836 123.922 4.56082L123.923 33.0453Z" fill="black"/>
<path d="M119.999 1.02726C122.136 1.02726 123.875 2.77116 123.875 4.91428V32.687C123.875 34.8301 122.136 36.574 119.999 36.574H4.61546C2.47856 36.574 0.739729 34.8301 0.739729 32.687V4.91428C0.739729 2.77116 2.47856 1.02726 4.61546 1.02726H119.999ZM119.999 0.285497H4.61546C2.07818 0.285497 0.00012207 2.36961 0.00012207 4.91428V32.687C0.00012207 35.2317 2.07818 37.3158 4.61546 37.3158H119.999C122.536 37.3158 124.614 35.2317 124.614 32.687V4.91428C124.614 2.36961 122.536 0.285497 119.999 0.285497Z" fill="#A6A6A6"/>
<path d="M27.8049 18.6009C27.7781 15.6172 30.2408 14.1656 30.3535 14.098C28.9587 12.0586 26.7969 11.7799 26.0372 11.7577C24.2215 11.5661 22.4603 12.8473 21.5354 12.8473C20.592 12.8473 19.1677 11.7762 17.6327 11.8077C15.6573 11.8383 13.8093 12.9853 12.7958 14.7664C10.7041 18.3982 12.2641 23.7352 14.2681 26.6707C15.2705 28.1084 16.4419 29.7137 17.9751 29.6572C19.4751 29.5952 20.0354 28.6982 21.8455 28.6982C23.6391 28.6982 24.1652 29.6572 25.7289 29.6211C27.3387 29.5952 28.3522 28.177 29.3196 26.7263C30.4781 25.0784 30.9433 23.4556 30.9618 23.3723C30.9239 23.3593 27.8353 22.1771 27.8049 18.6009Z" fill="white"/>
<path d="M24.851 9.82659C25.6578 8.81474 26.2098 7.43814 26.0566 6.04117C24.8889 6.09301 23.4286 6.85121 22.5877 7.84084C21.8437 8.7129 21.1791 10.1423 21.3508 11.4865C22.6625 11.5846 24.0092 10.8227 24.851 9.82659Z" fill="white"/>
<path d="M49.5157 29.451H47.4194L46.2711 25.8322H42.2798L41.1859 29.451H39.145L43.0994 17.131H45.5419L49.5157 29.451ZM45.9249 24.314L44.8865 21.097C44.7766 20.7683 44.5708 19.9944 44.2671 18.7761H44.2302C44.1093 19.3001 43.9145 20.074 43.6468 21.097L42.6268 24.314H45.9249Z" fill="white"/>
<path d="M59.685 24.8996C59.685 26.4105 59.2779 27.6047 58.4637 28.4814C57.7345 29.2618 56.829 29.6515 55.7481 29.6515C54.5813 29.6515 53.7432 29.2312 53.2327 28.3907H53.1958V33.0704H51.2278V23.4915C51.2278 22.5417 51.2029 21.5669 51.1549 20.5671H52.8857L52.9955 21.9752H53.0324C53.6887 20.9142 54.6847 20.3847 56.0213 20.3847C57.0662 20.3847 57.9385 20.7985 58.6364 21.6271C59.336 22.4565 59.685 23.5471 59.685 24.8996ZM57.6801 24.9718C57.6801 24.1072 57.4862 23.3943 57.0967 22.8333C56.6712 22.2483 56.0998 21.9557 55.3835 21.9557C54.8979 21.9557 54.4567 22.1186 54.0626 22.4399C53.6675 22.7639 53.409 23.187 53.2881 23.711C53.2272 23.9554 53.1967 24.1553 53.1967 24.3127V25.7939C53.1967 26.4401 53.3943 26.9854 53.7893 27.4306C54.1844 27.8759 54.6976 28.0981 55.329 28.0981C56.0702 28.0981 56.6472 27.8111 57.0598 27.239C57.4733 26.666 57.6801 25.9106 57.6801 24.9718Z" fill="white"/>
<path d="M69.8741 24.8996C69.8741 26.4105 69.467 27.6047 68.652 28.4814C67.9237 29.2618 67.0181 29.6515 65.9372 29.6515C64.7705 29.6515 63.9323 29.2312 63.4228 28.3907H63.3859V33.0704H61.4179V23.4915C61.4179 22.5417 61.393 21.5669 61.345 20.5671H63.0757L63.1856 21.9752H63.2225C63.8779 20.9142 64.8739 20.3847 66.2114 20.3847C67.2554 20.3847 68.1277 20.7985 68.8274 21.6271C69.5243 22.4565 69.8741 23.5471 69.8741 24.8996ZM67.8692 24.9718C67.8692 24.1072 67.6744 23.3943 67.2849 22.8333C66.8594 22.2483 66.2898 21.9557 65.5726 21.9557C65.0862 21.9557 64.6459 22.1186 64.2508 22.4399C63.8557 22.7639 63.5982 23.187 63.4773 23.711C63.4173 23.9554 63.3859 24.1553 63.3859 24.3127V25.7939C63.3859 26.4401 63.5834 26.9854 63.9766 27.4306C64.3717 27.875 64.8849 28.0981 65.5182 28.0981C66.2594 28.0981 66.8363 27.8111 67.2489 27.239C67.6624 26.666 67.8692 25.9106 67.8692 24.9718Z" fill="white"/>
<path d="M81.2623 25.9957C81.2623 27.0437 80.8996 27.8963 80.1713 28.5545C79.371 29.2738 78.2568 29.633 76.8251 29.633C75.5033 29.633 74.4436 29.3775 73.6415 28.8656L74.0975 27.2205C74.9615 27.7445 75.9095 28.0074 76.9424 28.0074C77.6836 28.0074 78.2605 27.8389 78.675 27.5038C79.0876 27.1686 79.2934 26.7187 79.2934 26.1577C79.2934 25.6578 79.1236 25.2366 78.783 24.895C78.4442 24.5534 77.8784 24.2358 77.0882 23.9424C74.9375 23.1379 73.863 21.9594 73.863 20.4097C73.863 19.3969 74.2396 18.5665 74.9938 17.9203C75.7452 17.2732 76.7476 16.9501 78.0011 16.9501C79.119 16.9501 80.0476 17.1455 80.7888 17.5352L80.2968 19.1442C79.6045 18.7665 78.8217 18.5776 77.9457 18.5776C77.2534 18.5776 76.7125 18.7489 76.3248 19.0896C75.9972 19.3941 75.8328 19.7654 75.8328 20.2051C75.8328 20.692 76.0202 21.0948 76.3968 21.4114C76.7245 21.7039 77.3199 22.0205 78.1839 22.3621C79.2408 22.7889 80.0171 23.2879 80.5165 23.86C81.014 24.4303 81.2623 25.144 81.2623 25.9957Z" fill="white"/>
<path d="M87.7681 22.0485H85.5988V26.3616C85.5988 27.4586 85.981 28.0066 86.7471 28.0066C87.0988 28.0066 87.3905 27.9761 87.6213 27.915L87.6757 29.4138C87.2881 29.5591 86.7776 29.6323 86.1453 29.6323C85.3681 29.6323 84.7607 29.3943 84.3223 28.9194C83.8856 28.4436 83.6659 27.6456 83.6659 26.5245V22.0466H82.3737V20.5654H83.6659V18.9388L85.5988 18.3538V20.5654H87.7681V22.0485Z" fill="white"/>
<path d="M97.5597 24.9358C97.5597 26.3013 97.1702 27.4224 96.3929 28.2991C95.5779 29.2017 94.496 29.6516 93.1474 29.6516C91.8478 29.6516 90.813 29.2193 90.0413 28.3546C89.2696 27.4899 88.8838 26.3985 88.8838 25.083C88.8838 23.7064 89.2807 22.5788 90.0773 21.7021C90.8721 20.8245 91.9447 20.3857 93.2933 20.3857C94.593 20.3857 95.6388 20.818 96.428 21.6836C97.1831 22.5233 97.5597 23.6073 97.5597 24.9358ZM95.5179 24.9997C95.5179 24.1804 95.3434 23.4777 94.9899 22.8917C94.5773 22.1826 93.9874 21.8289 93.2231 21.8289C92.4321 21.8289 91.8311 22.1835 91.4185 22.8917C91.065 23.4786 90.8905 24.1924 90.8905 25.0367C90.8905 25.856 91.065 26.5586 91.4185 27.1437C91.8441 27.8528 92.4385 28.2065 93.2056 28.2065C93.957 28.2065 94.5468 27.8454 94.9723 27.1252C95.3351 26.5281 95.5179 25.818 95.5179 24.9997Z" fill="white"/>
<path d="M103.954 22.3029C103.759 22.2668 103.551 22.2483 103.333 22.2483C102.641 22.2483 102.106 22.5102 101.729 23.0351C101.401 23.498 101.237 24.0831 101.237 24.7895V29.4506H99.27L99.2884 23.3647C99.2884 22.3408 99.2635 21.4086 99.2146 20.568H100.929L101.001 22.2677H101.055C101.263 21.6835 101.591 21.2133 102.039 20.8605C102.478 20.543 102.951 20.3847 103.462 20.3847C103.643 20.3847 103.808 20.3977 103.954 20.4208V22.3029Z" fill="white"/>
<path d="M112.752 24.5888C112.752 24.9424 112.729 25.2405 112.68 25.484H106.776C106.799 26.3616 107.085 27.0328 107.633 27.4956C108.13 27.9094 108.774 28.1168 109.564 28.1168C110.438 28.1168 111.236 27.977 111.953 27.6965L112.261 29.0666C111.423 29.4332 110.433 29.6156 109.292 29.6156C107.918 29.6156 106.84 29.2101 106.055 28.4001C105.273 27.5901 104.88 26.5023 104.88 25.1377C104.88 23.7982 105.245 22.6826 105.975 21.793C106.739 20.8431 107.772 20.3682 109.072 20.3682C110.348 20.3682 111.315 20.8431 111.971 21.793C112.491 22.5475 112.752 23.4806 112.752 24.5888ZM110.876 24.0768C110.888 23.4917 110.76 22.9863 110.493 22.5595C110.153 22.0105 109.629 21.7365 108.925 21.7365C108.282 21.7365 107.758 22.004 107.359 22.541C107.031 22.9678 106.836 23.4797 106.776 24.0759H110.876V24.0768Z" fill="white"/>
<path d="M45.2747 9.55152C45.2747 10.6411 44.9488 11.4614 44.298 12.0122C43.6953 12.5204 42.8387 12.775 41.7292 12.775C41.179 12.775 40.7082 12.7509 40.3141 12.7028V6.74925C40.8282 6.66594 41.3821 6.62335 41.9802 6.62335C43.0371 6.62335 43.8337 6.85387 44.371 7.31489C44.9728 7.83609 45.2747 8.58133 45.2747 9.55152ZM44.2547 9.57837C44.2547 8.87202 44.0682 8.33045 43.6953 7.95274C43.3224 7.57596 42.7778 7.3871 42.0605 7.3871C41.7559 7.3871 41.4965 7.40747 41.2815 7.45005V11.9761C41.4005 11.9946 41.6184 12.0029 41.935 12.0029C42.6753 12.0029 43.2467 11.7965 43.6491 11.3836C44.0516 10.9707 44.2547 10.369 44.2547 9.57837Z" fill="white"/>
<path d="M50.6789 10.5029C50.6789 11.174 50.4878 11.7239 50.1057 12.1554C49.7051 12.5988 49.1743 12.82 48.5116 12.82C47.8728 12.82 47.3642 12.608 46.9848 12.1822C46.6063 11.7573 46.4171 11.2213 46.4171 10.5751C46.4171 9.89928 46.6119 9.34475 47.0033 8.91428C47.3946 8.4838 47.9208 8.2681 48.5836 8.2681C49.2223 8.2681 49.7355 8.4801 50.1242 8.90502C50.4934 9.31791 50.6789 9.85114 50.6789 10.5029ZM49.6755 10.5344C49.6755 10.1316 49.5888 9.78634 49.4162 9.49843C49.2131 9.15034 48.9242 8.9763 48.5485 8.9763C48.1599 8.9763 47.8645 9.15034 47.6614 9.49843C47.4879 9.78634 47.402 10.1372 47.402 10.5519C47.402 10.9546 47.4888 11.3 47.6614 11.5879C47.8709 11.9359 48.1626 12.11 48.5392 12.11C48.9085 12.11 49.1983 11.9332 49.4069 11.5786C49.586 11.2851 49.6755 10.9371 49.6755 10.5344Z" fill="white"/>
<path d="M57.9348 8.35699L56.5733 12.721H55.6871L55.1231 10.826C54.9801 10.3529 54.8637 9.88264 54.7733 9.41606H54.7557C54.6718 9.8956 54.5554 10.365 54.4059 10.826L53.8068 12.721H52.9105L51.6302 8.35699H52.6244L53.1164 10.4316C53.2355 10.9223 53.3333 11.3898 53.4118 11.8323H53.4293C53.5013 11.4675 53.6204 11.0028 53.7884 10.4409L54.4059 8.35792H55.1942L55.7859 10.3964C55.929 10.8936 56.0453 11.3722 56.1348 11.8332H56.1616C56.2271 11.3842 56.3259 10.9056 56.457 10.3964L56.985 8.35792H57.9348V8.35699Z" fill="white"/>
<path d="M62.95 12.7212H61.9826V10.2216C61.9826 9.4514 61.6909 9.06628 61.1057 9.06628C60.8186 9.06628 60.5869 9.17182 60.4069 9.38382C60.2288 9.59582 60.1383 9.84577 60.1383 10.1318V12.7202H59.1709V9.60415C59.1709 9.22089 59.1589 8.80522 59.1359 8.3553H59.986L60.0312 9.03759H60.058C60.1706 8.82559 60.3386 8.65062 60.5592 8.51083C60.8214 8.3479 61.1149 8.2655 61.4361 8.2655C61.8423 8.2655 62.1801 8.39696 62.4487 8.6608C62.7829 8.98389 62.95 9.46621 62.95 10.1068V12.7212Z" fill="white"/>
<path d="M65.6171 12.7212H64.6506V6.3548H65.6171V12.7212Z" fill="white"/>
<path d="M71.3154 10.5029C71.3154 11.174 71.1243 11.7239 70.7422 12.1554C70.3416 12.5988 69.8099 12.82 69.148 12.82C68.5083 12.82 67.9997 12.608 67.6213 12.1822C67.2428 11.7573 67.0536 11.2213 67.0536 10.5751C67.0536 9.89928 67.2484 9.34475 67.6397 8.91428C68.0311 8.4838 68.5573 8.2681 69.2191 8.2681C69.8588 8.2681 70.3711 8.4801 70.7606 8.90502C71.1298 9.31791 71.3154 9.85114 71.3154 10.5029ZM70.3111 10.5344C70.3111 10.1316 70.2243 9.78634 70.0517 9.49843C69.8496 9.15034 69.5597 8.9763 69.1849 8.9763C68.7954 8.9763 68.5 9.15034 68.2979 9.49843C68.1243 9.78634 68.0385 10.1372 68.0385 10.5519C68.0385 10.9546 68.1253 11.3 68.2979 11.5879C68.5074 11.9359 68.7991 12.11 69.1757 12.11C69.5449 12.11 69.8339 11.9332 70.0425 11.5786C70.2225 11.2851 70.3111 10.9371 70.3111 10.5344Z" fill="white"/>
<path d="M75.9949 12.721H75.1263L75.0543 12.2183H75.0275C74.7303 12.6192 74.3066 12.82 73.7564 12.82C73.3457 12.82 73.0134 12.6877 72.7632 12.4247C72.5361 12.1859 72.4226 11.8887 72.4226 11.536C72.4226 11.0028 72.6441 10.5964 73.09 10.3149C73.5349 10.0335 74.1607 9.89558 74.9666 9.90206V9.82059C74.9666 9.2457 74.6657 8.95871 74.0629 8.95871C73.6337 8.95871 73.2552 9.06703 72.9285 9.2818L72.7318 8.64488C73.1361 8.394 73.6355 8.2681 74.2244 8.2681C75.3617 8.2681 75.9321 8.86984 75.9321 10.0733V11.6804C75.9321 12.1165 75.9533 12.4636 75.9949 12.721ZM74.9906 11.2213V10.5482C73.9235 10.5297 73.39 10.8232 73.39 11.4277C73.39 11.6554 73.4509 11.8258 73.5755 11.9397C73.7001 12.0535 73.8589 12.11 74.0481 12.11C74.2604 12.11 74.4589 12.0424 74.6398 11.9082C74.8217 11.773 74.9333 11.6017 74.9749 11.3916C74.985 11.3444 74.9906 11.287 74.9906 11.2213Z" fill="white"/>
<path d="M81.493 12.7212H80.6346L80.5893 12.0204H80.5626C80.2884 12.5537 79.8214 12.8203 79.1651 12.8203C78.6408 12.8203 78.2041 12.6138 77.858 12.201C77.5118 11.7881 77.3392 11.2521 77.3392 10.5938C77.3392 9.88749 77.5266 9.31537 77.9032 8.87841C78.2678 8.47108 78.7146 8.26741 79.2463 8.26741C79.8306 8.26741 80.2395 8.4646 80.4721 8.8599H80.4906V6.3548H81.4589V11.5455C81.4589 11.9704 81.47 12.362 81.493 12.7212ZM80.4906 10.8808V10.1532C80.4906 10.0273 80.4813 9.92544 80.4638 9.84768C80.4093 9.61439 80.2921 9.41813 80.114 9.25982C79.934 9.10152 79.717 9.0219 79.4669 9.0219C79.106 9.0219 78.8235 9.1654 78.6158 9.45331C78.41 9.74122 78.3057 10.1087 78.3057 10.5577C78.3057 10.9891 78.4044 11.3391 78.6029 11.6085C78.8124 11.8955 79.0949 12.0389 79.4484 12.0389C79.766 12.0389 80.0198 11.9195 80.2127 11.6798C80.3992 11.4585 80.4906 11.1919 80.4906 10.8808Z" fill="white"/>
<path d="M89.7651 10.5029C89.7651 11.174 89.574 11.7239 89.1919 12.1554C88.7913 12.5988 88.2614 12.82 87.5977 12.82C86.9599 12.82 86.4513 12.608 86.071 12.1822C85.6925 11.7573 85.5033 11.2213 85.5033 10.5751C85.5033 9.89928 85.6981 9.34475 86.0894 8.91428C86.4808 8.4838 87.007 8.2681 87.6707 8.2681C88.3085 8.2681 88.8226 8.4801 89.2103 8.90502C89.5796 9.31791 89.7651 9.85114 89.7651 10.5029ZM88.7626 10.5344C88.7626 10.1316 88.6759 9.78634 88.5033 9.49843C88.2993 9.15034 88.0113 8.9763 87.6347 8.9763C87.247 8.9763 86.9516 9.15034 86.7476 9.49843C86.5741 9.78634 86.4882 10.1372 86.4882 10.5519C86.4882 10.9546 86.575 11.3 86.7476 11.5879C86.9571 11.9359 87.2488 12.11 87.6254 12.11C87.9947 12.11 88.2854 11.9332 88.494 11.5786C88.6722 11.2851 88.7626 10.9371 88.7626 10.5344Z" fill="white"/>
<path d="M94.967 12.7212H94.0005V10.2216C94.0005 9.4514 93.7089 9.06628 93.1227 9.06628C92.8356 9.06628 92.6039 9.17182 92.4249 9.38382C92.2458 9.59582 92.1563 9.84577 92.1563 10.1318V12.7202H91.188V9.60415C91.188 9.22089 91.1769 8.80522 91.1538 8.3553H92.003L92.0483 9.03759H92.075C92.1886 8.82559 92.3566 8.65062 92.5763 8.51083C92.8393 8.3479 93.1319 8.2655 93.4541 8.2655C93.8593 8.2655 94.1972 8.39696 94.4658 8.6608C94.8008 8.98389 94.967 9.46621 94.967 10.1068V12.7212Z" fill="white"/>
<path d="M101.475 9.08364H100.41V11.2036C100.41 11.7424 100.599 12.0118 100.974 12.0118C101.148 12.0118 101.292 11.997 101.405 11.9664L101.43 12.7024C101.239 12.7746 100.988 12.8107 100.679 12.8107C100.297 12.8107 99.9995 12.6941 99.7844 12.4608C99.5684 12.2275 99.4613 11.835 99.4613 11.2842V9.08364H98.8253V8.35692H99.4613V7.55707L100.409 7.27008V8.35599H101.475V9.08364H101.475Z" fill="white"/>
<path d="M106.596 12.7212H105.628V10.2402C105.628 9.45794 105.336 9.06634 104.752 9.06634C104.303 9.06634 103.997 9.29315 103.829 9.74677C103.8 9.84213 103.783 9.95877 103.783 10.0958V12.7203H102.817V6.3548H103.783V8.98487H103.802C104.106 8.50626 104.543 8.26741 105.109 8.26741C105.509 8.26741 105.841 8.39887 106.104 8.66271C106.432 8.99135 106.596 9.48015 106.596 10.1263V12.7212Z" fill="white"/>
<path d="M111.879 10.3328C111.879 10.5068 111.866 10.6531 111.843 10.7725H108.941C108.954 11.2039 109.093 11.5326 109.361 11.7603C109.607 11.964 109.924 12.0658 110.311 12.0658C110.74 12.0658 111.132 11.9973 111.484 11.8594L111.636 12.5333C111.223 12.7129 110.738 12.8027 110.176 12.8027C109.502 12.8027 108.971 12.6037 108.587 12.2056C108.201 11.8075 108.01 11.2734 108.01 10.6031C108.01 9.94489 108.188 9.39684 108.547 8.95988C108.922 8.4933 109.429 8.26001 110.068 8.26001C110.694 8.26001 111.17 8.4933 111.491 8.95988C111.75 9.33018 111.879 9.78843 111.879 10.3328ZM110.956 10.0819C110.963 9.79399 110.899 9.54589 110.768 9.33667C110.6 9.06727 110.344 8.93211 109.998 8.93211C109.683 8.93211 109.425 9.06357 109.228 9.32741C109.068 9.53755 108.973 9.78843 108.941 10.0819H110.956Z" fill="white"/>
</svg>
