<svg width="125" height="38" viewBox="0 0 125 38" fill="none" xmlns="http://www.w3.org/2000/svg">
<path d="M120.316 37.3155H5.0908C2.55701 37.3155 0.481812 35.2313 0.481812 32.6867V4.91395C0.481812 2.36927 2.55701 0.285159 5.0908 0.285159H120.316C122.849 0.285159 124.925 2.36927 124.925 4.91395V32.6867C124.925 35.2313 122.849 37.3155 120.316 37.3155Z" fill="black"/>
<path d="M120.316 1.02692C122.449 1.02692 124.186 2.77082 124.186 4.91395V32.6867C124.186 34.8298 122.449 36.5737 120.316 36.5737H5.0908C2.95684 36.5737 1.2204 34.8298 1.2204 32.6867V4.91395C1.2204 2.77082 2.95684 1.02692 5.0908 1.02692H120.316ZM120.316 0.285159H5.0908C2.55701 0.285159 0.481812 2.36927 0.481812 4.91395V32.6867C0.481812 35.2313 2.55701 37.3155 5.0908 37.3155H120.316C122.849 37.3155 124.925 35.2313 124.925 32.6867V4.91395C124.925 2.36927 122.849 0.285159 120.316 0.285159Z" fill="#A6A6A6"/>
<path d="M44.1901 9.76831C44.1901 10.5413 43.9596 11.1604 43.5056 11.6221C42.9837 12.1695 42.3038 12.4449 41.4708 12.4449C40.6746 12.4449 39.9947 12.1649 39.437 11.6129C38.8782 11.0528 38.5994 10.3654 38.5994 9.54266C38.5994 8.71989 38.8782 8.03252 39.437 7.47707C39.9947 6.92045 40.6746 6.64041 41.4708 6.64041C41.8671 6.64041 42.2451 6.72257 42.6057 6.87532C42.9652 7.02923 43.2579 7.23752 43.4699 7.49442L42.9883 7.98276C42.6184 7.54418 42.1149 7.32779 41.4708 7.32779C40.89 7.32779 40.3865 7.53145 39.959 7.94226C39.5361 8.35422 39.3241 8.88769 39.3241 9.54266C39.3241 10.1976 39.5361 10.7357 39.959 11.1477C40.3865 11.5539 40.89 11.7622 41.4708 11.7622C42.0872 11.7622 42.6057 11.5539 43.0148 11.1431C43.2844 10.8711 43.4377 10.4962 43.478 10.0171H41.4708V9.34825H44.1486C44.1808 9.4929 44.1901 9.63292 44.1901 9.76831V9.76831Z" fill="white" stroke="white" stroke-width="0.16" stroke-miterlimit="10"/>
<path d="M48.4411 7.44908H45.9257V9.20801H48.1933V9.87687H45.9257V11.6358H48.4411V12.3174H45.2136V6.76749H48.4411V7.44908Z" fill="white" stroke="white" stroke-width="0.16" stroke-miterlimit="10"/>
<path d="M51.439 12.3174H50.7269V7.44904H49.1841V6.76746H52.983V7.44904H51.439V12.3174V12.3174Z" fill="white" stroke="white" stroke-width="0.16" stroke-miterlimit="10"/>
<path d="M55.7336 12.3174V6.76746H56.4446V12.3174H55.7336Z" fill="white" stroke="white" stroke-width="0.16" stroke-miterlimit="10"/>
<path d="M59.5947 12.3176H58.8883V7.44923H57.3397V6.76764H61.1433V7.44923H59.5947V12.3176Z" fill="white" stroke="white" stroke-width="0.16" stroke-miterlimit="10"/>
<path d="M68.3314 11.6038C67.7864 12.165 67.1111 12.445 66.3057 12.445C65.4957 12.445 64.8205 12.165 64.2755 11.6038C63.7316 11.0437 63.4608 10.3563 63.4608 9.54278C63.4608 8.72927 63.7316 8.0419 64.2755 7.48182C64.8205 6.92058 65.4957 6.64053 66.3057 6.64053C67.1065 6.64053 67.7817 6.92057 68.3268 7.48644C68.8752 8.05116 69.146 8.7339 69.146 9.54278C69.146 10.3563 68.8752 11.0437 68.3314 11.6038ZM64.802 11.1386C65.2122 11.554 65.7112 11.7623 66.3057 11.7623C66.8957 11.7623 67.3992 11.554 67.8048 11.1386C68.2138 10.7231 68.4212 10.1897 68.4212 9.54278C68.4212 8.89591 68.2138 8.36244 67.8048 7.94701C67.3992 7.53158 66.8957 7.32328 66.3057 7.32328C65.7112 7.32328 65.2122 7.53158 64.802 7.94701C64.393 8.36244 64.1856 8.89591 64.1856 9.54278C64.1856 10.1897 64.393 10.7231 64.802 11.1386V11.1386Z" fill="white" stroke="white" stroke-width="0.16" stroke-miterlimit="10"/>
<path d="M70.1495 12.3176V6.76764H71.0137L73.7008 11.084H73.7319L73.7008 10.017V6.76764H74.4117V12.3176H73.6697L70.8559 7.78829H70.8248L70.8559 8.85985V12.3176H70.1495V12.3176Z" fill="white" stroke="white" stroke-width="0.16" stroke-miterlimit="10"/>
<path d="M63.2874 20.4228C61.1223 20.4228 59.3536 22.0776 59.3536 24.3608C59.3536 26.6254 61.1223 28.2976 63.2874 28.2976C65.4571 28.2976 67.2258 26.6254 67.2258 24.3608C67.2258 22.0776 65.4571 20.4228 63.2874 20.4228ZM63.2874 26.7469C62.0994 26.7469 61.0774 25.7621 61.0774 24.3608C61.0774 22.9409 62.0994 21.9735 63.2874 21.9735C64.4753 21.9735 65.502 22.9409 65.502 24.3608C65.502 25.7621 64.4753 26.7469 63.2874 26.7469V26.7469ZM54.7043 20.4228C52.5346 20.4228 50.7705 22.0776 50.7705 24.3608C50.7705 26.6254 52.5346 28.2976 54.7043 28.2976C56.8728 28.2976 58.6381 26.6254 58.6381 24.3608C58.6381 22.0776 56.8728 20.4228 54.7043 20.4228ZM54.7043 26.7469C53.5152 26.7469 52.4897 25.7621 52.4897 24.3608C52.4897 22.9409 53.5152 21.9735 54.7043 21.9735C55.8923 21.9735 56.9143 22.9409 56.9143 24.3608C56.9143 25.7621 55.8923 26.7469 54.7043 26.7469ZM44.4908 21.6298V23.3031H48.4695C48.3531 24.2381 48.042 24.9255 47.565 25.4046C46.9842 25.9832 46.0797 26.6254 44.4908 26.6254C42.0423 26.6254 40.1249 24.6408 40.1249 22.1818C40.1249 19.7227 42.0423 17.7381 44.4908 17.7381C45.8147 17.7381 46.778 18.2577 47.4889 18.9312L48.6631 17.752C47.6687 16.7985 46.3459 16.066 44.4908 16.066C41.1331 16.066 38.3113 18.8097 38.3113 22.1818C38.3113 25.5538 41.1331 28.2976 44.4908 28.2976C46.3056 28.2976 47.6687 27.7004 48.7403 26.5803C49.8384 25.4775 50.1806 23.9268 50.1806 22.6747C50.1806 22.2859 50.1483 21.9283 50.0907 21.6298H44.4908ZM86.2551 22.927C85.9313 22.0464 84.9323 20.4228 82.8975 20.4228C80.881 20.4228 79.2022 22.0186 79.2022 24.3608C79.2022 26.5664 80.8638 28.2976 83.091 28.2976C84.892 28.2976 85.9313 27.1947 86.3588 26.5525L85.0222 25.658C84.5763 26.313 83.9691 26.7469 83.091 26.7469C82.2188 26.7469 81.5931 26.3454 81.1921 25.5538L86.436 23.3748L86.2551 22.927V22.927ZM80.9087 24.2381C80.8638 22.7199 82.0828 21.9422 82.9562 21.9422C83.6407 21.9422 84.2214 22.2859 84.415 22.7777L80.9087 24.2381V24.2381ZM76.6465 28.058H78.3703V16.4861H76.6465V28.058ZM73.8235 21.3H73.7659C73.3788 20.8394 72.6402 20.4228 71.7045 20.4228C69.7411 20.4228 67.9459 22.154 67.9459 24.3735C67.9459 26.5803 69.7411 28.2976 71.7045 28.2976C72.6402 28.2976 73.3788 27.8775 73.7659 27.403H73.8235V27.9678C73.8235 29.4733 73.0227 30.2822 71.731 30.2822C70.6779 30.2822 70.0246 29.5184 69.7549 28.8762L68.2559 29.5045C68.688 30.5483 69.8321 31.8328 71.731 31.8328C73.7521 31.8328 75.4574 30.6386 75.4574 27.7328V20.6624H73.8235V21.3V21.3ZM71.852 26.7469C70.6641 26.7469 69.6697 25.7483 69.6697 24.3735C69.6697 22.986 70.6641 21.9735 71.852 21.9735C73.0227 21.9735 73.9457 22.986 73.9457 24.3735C73.9457 25.7483 73.0227 26.7469 71.852 26.7469V26.7469ZM94.3255 16.4861H90.2027V28.058H91.9219V23.6734H94.3255C96.2347 23.6734 98.1071 22.2859 98.1071 20.0791C98.1071 17.8735 96.2301 16.4861 94.3255 16.4861V16.4861ZM94.3704 22.0637H91.9219V18.0957H94.3704C95.654 18.0957 96.3868 19.1661 96.3868 20.0791C96.3868 20.9748 95.654 22.0637 94.3704 22.0637ZM104.998 20.4008C103.755 20.4008 102.464 20.9517 101.933 22.1725L103.458 22.8148C103.787 22.1725 104.39 21.9642 105.029 21.9642C105.921 21.9642 106.825 22.5023 106.839 23.4524V23.5739C106.528 23.3934 105.862 23.126 105.043 23.126C103.399 23.126 101.725 24.0344 101.725 25.7297C101.725 27.2804 103.071 28.279 104.584 28.279C105.741 28.279 106.379 27.7548 106.78 27.145H106.839V28.0395H108.499V23.6005C108.499 21.5488 106.974 20.4008 104.998 20.4008ZM104.79 26.7423C104.228 26.7423 103.444 26.4622 103.444 25.7621C103.444 24.8665 104.421 24.5228 105.267 24.5228C106.024 24.5228 106.379 24.6906 106.839 24.9116C106.704 25.9832 105.786 26.7423 104.79 26.7423V26.7423ZM114.549 20.6543L112.572 25.6707H112.514L110.471 20.6543H108.617L111.686 27.6646L109.935 31.5655H111.731L116.461 20.6543H114.549V20.6543ZM99.052 28.058H100.776V16.4861H99.052V28.058Z" fill="white"/>
<path d="M10.1 7.26444C9.82919 7.54911 9.67249 7.99231 9.67249 8.56628V29.0394C9.67249 29.6134 9.82919 30.0566 10.1 30.3413L10.1668 30.4037L21.5902 18.9359V18.6651L10.1668 7.19732L10.1 7.26444Z" fill="url(#paint0_linear_53_709)"/>
<path d="M25.3992 22.7605L21.5956 18.9359V18.6651L25.4038 14.8406L25.489 14.8904L29.9989 17.4674C31.286 18.1988 31.286 19.4023 29.9989 20.1383L25.489 22.7107L25.3992 22.7605V22.7605Z" fill="url(#paint1_linear_53_709)"/>
<path d="M25.4808 22.7107L21.5874 18.8005L10.0972 30.3412C10.5247 30.7925 11.2218 30.8469 12.0145 30.3956L25.4808 22.7107" fill="url(#paint2_linear_53_709)"/>
<path d="M25.4808 14.8902L12.0145 7.20521C11.2218 6.75853 10.5247 6.81292 10.0972 7.26423L21.5874 18.8003L25.4808 14.8902Z" fill="url(#paint3_linear_53_709)"/>
<defs>
<linearGradient id="paint0_linear_53_709" x1="20.5759" y1="29.2526" x2="5.03963" y2="13.7828" gradientUnits="userSpaceOnUse">
<stop stop-color="#00A0FF"/>
<stop offset="0.0066" stop-color="#00A1FF"/>
<stop offset="0.2601" stop-color="#00BEFF"/>
<stop offset="0.5122" stop-color="#00D2FF"/>
<stop offset="0.7604" stop-color="#00DFFF"/>
<stop offset="1" stop-color="#00E3FF"/>
</linearGradient>
<linearGradient id="paint1_linear_53_709" x1="31.6749" y1="18.7992" x2="9.37024" y2="18.7992" gradientUnits="userSpaceOnUse">
<stop stop-color="#FFE000"/>
<stop offset="0.4087" stop-color="#FFBD00"/>
<stop offset="0.7754" stop-color="#FFA500"/>
<stop offset="1" stop-color="#FF9C00"/>
</linearGradient>
<linearGradient id="paint2_linear_53_709" x1="23.3637" y1="16.6749" x2="2.29521" y2="-4.30348" gradientUnits="userSpaceOnUse">
<stop stop-color="#FF3A44"/>
<stop offset="1" stop-color="#C31162"/>
</linearGradient>
<linearGradient id="paint3_linear_53_709" x1="7.20484" y1="37.1524" x2="16.6129" y2="27.7847" gradientUnits="userSpaceOnUse">
<stop stop-color="#32A071"/>
<stop offset="0.0685" stop-color="#2DA771"/>
<stop offset="0.4762" stop-color="#15CF74"/>
<stop offset="0.8009" stop-color="#06E775"/>
<stop offset="1" stop-color="#00F076"/>
</linearGradient>
</defs>
</svg>
