<svg width="48" height="48" viewBox="0 0 48 48" fill="none" xmlns="http://www.w3.org/2000/svg">
<path d="M21.3316 26.6681C22.1075 27.4061 22.1075 28.6172 21.3316 29.3552C20.5936 30.0932 19.3825 30.0932 18.6445 29.3552C16.8722 27.5801 15.8767 25.1743 15.8767 22.6659C15.8767 20.1575 16.8722 17.7516 18.6445 15.9766L25.3433 9.27781C27.1183 7.50543 29.5242 6.50995 32.0326 6.50995C34.541 6.50995 36.9469 7.50543 38.7219 9.27781C40.4943 11.0528 41.4898 13.4587 41.4898 15.9671C41.4898 18.4755 40.4943 20.8814 38.7219 22.6564L35.9024 25.4759C35.9213 23.9243 35.6753 22.3726 35.1454 20.8966L36.0348 19.9883C36.5653 19.4635 36.9865 18.8387 37.2739 18.1501C37.5613 17.4615 37.7093 16.7228 37.7093 15.9766C37.7093 15.2304 37.5613 14.4916 37.2739 13.803C36.9865 13.1144 36.5653 12.4896 36.0348 11.9649C35.5101 11.4344 34.8853 11.0133 34.1967 10.7258C33.5081 10.4384 32.7693 10.2904 32.0231 10.2904C31.277 10.2904 30.5382 10.4384 29.8496 10.7258C29.161 11.0133 28.5362 11.4344 28.0115 11.9649L21.3316 18.6447C20.8011 19.1695 20.38 19.7942 20.0926 20.4829C19.8052 21.1715 19.6572 21.9102 19.6572 22.6564C19.6572 23.4026 19.8052 24.1414 20.0926 24.83C20.38 25.5186 20.8011 26.1433 21.3316 26.6681ZM26.6679 18.6447C27.4059 17.9067 28.617 17.9067 29.355 18.6447C31.1274 20.4198 32.1229 22.8256 32.1229 25.334C32.1229 27.8424 31.1274 30.2483 29.355 32.0233L22.6562 38.7221C20.8812 40.4945 18.4753 41.4899 15.9669 41.4899C13.4585 41.4899 11.0527 40.4945 9.27763 38.7221C7.50525 36.9471 6.50977 34.5412 6.50977 32.0328C6.50977 29.5244 7.50525 27.1185 9.27763 25.3435L12.0972 22.524C12.0782 24.0756 12.3242 25.6273 12.8541 27.1223L11.9647 28.0116C11.4342 28.5364 11.0131 29.1612 10.7257 29.8498C10.4382 30.5384 10.2902 31.2771 10.2902 32.0233C10.2902 32.7695 10.4382 33.5083 10.7257 34.1969C11.0131 34.8855 11.4342 35.5103 11.9647 36.035C12.4895 36.5655 13.1142 36.9866 13.8028 37.2741C14.4914 37.5615 15.2302 37.7095 15.9764 37.7095C16.7226 37.7095 17.4613 37.5615 18.1499 37.2741C18.8386 36.9866 19.4633 36.5655 19.9881 36.035L26.6679 29.3552C27.1984 28.8304 27.6195 28.2057 27.907 27.517C28.1944 26.8284 28.3424 26.0897 28.3424 25.3435C28.3424 24.5973 28.1944 23.8585 27.907 23.1699C27.6195 22.4813 27.1984 21.8566 26.6679 21.3318C26.4841 21.1596 26.3376 20.9515 26.2375 20.7204C26.1373 20.4893 26.0857 20.2401 26.0857 19.9883C26.0857 19.7364 26.1373 19.4872 26.2375 19.2561C26.3376 19.025 26.4841 18.8169 26.6679 18.6447Z" fill="#0078D2"/>
</svg>
