<svg width="251" height="46" viewBox="0 0 251 46" fill="none" xmlns="http://www.w3.org/2000/svg">
<rect width="251" height="46" fill="#F5F5F5"/>
<g clip-path="url(#clip0_0_1)">
<rect width="1440" height="3536" transform="translate(-70 -17)" fill="white"/>
<rect width="1440" height="80" transform="translate(-70 -17)" fill="white"/>
<path d="M22.3938 34.7231C19.0288 34.237 13.8297 32.6936 14.0074 27.2672C14.1856 21.8344 18.8801 15.7756 22.3938 11.2174V0.620361C8.7548 0.886328 -0.692903 11.9995 0.0398381 23.962C0.790802 36.2297 10.0849 44.7814 22.3938 45.4685V34.7231Z" fill="#0078D2"/>
<path d="M30.9274 27.3499C30.7474 21.8538 25.8796 15.7091 22.3918 11.1759V34.7387C25.6933 34.3038 31.1075 32.8449 30.9274 27.3499Z" fill="#0078D2"/>
<path d="M23.7729 0.48877V1.9841C34.8375 2.64054 43.6383 11.814 43.6383 23C43.6383 34.186 34.8375 43.3594 23.7729 44.0159V45.5112C35.6636 44.8541 45.1358 35.0095 45.1358 23C45.1358 10.9908 35.6636 1.1466 23.7729 0.48877V0.48877Z" fill="#0078D2"/>
<path d="M61.8651 20.6169L63.1387 15.8822C63.1387 15.8822 63.596 13.579 61.2317 13.579H57.2514C55.4428 13.579 54.2559 15.8233 54.2559 15.8233L50.4389 30.0176C50.4389 30.0176 49.9922 32.7445 52.075 32.7445H56.1448C58.2053 32.7445 59.3089 30.1241 59.3089 30.1241L60.833 24.456H57.1705L55.7701 29.6629H54.1967L57.6938 16.6592H59.2669L58.203 20.6169H61.8651V20.6169ZM79.7257 13.579H83.5077L82.898 18.7596L85.1417 13.579H88.9248L84.0876 22.667L83.9517 32.7445H80.1679L80.8364 26.5941L78.1536 32.7445H74.3764L79.6748 22.667L79.7257 13.579V13.579ZM99.517 32.7445H103.179L105.459 24.2666H107.034L104.753 32.7445H108.416L113.57 13.579H109.908L107.862 21.1858H106.288L108.333 13.579H104.671L99.517 32.7445ZM117.219 13.579H123.633L122.805 16.6592H120.053L118.836 21.1858H121.588L120.759 24.2666H118.008L116.556 29.6629H119.308L118.479 32.7445H112.065L117.219 13.579V13.579ZM138.362 23.0357L138.561 22.2985C138.561 22.2985 139.955 16.5935 137.633 16.5935H134.858L135.668 13.579H132.006L131.195 16.5935H128.331C126.086 16.5935 124.311 22.7196 124.311 22.7196L124.127 23.4038C124.127 23.4038 122.556 29.8057 124.599 29.8057H127.642L126.852 32.7445H130.515L131.305 29.8057H134.214C136.383 29.8057 138.362 23.0357 138.362 23.0357V23.0357ZM128.471 26.7248H126.898L128.789 19.6921H130.362L128.471 26.7248ZM133.708 26.7248H132.134L134.025 19.6921H135.599L133.708 26.7248V26.7248ZM155.298 13.579H161.713L160.884 16.6592H158.132L156.915 21.1858H159.667L158.839 24.2666H156.086L154.635 29.6629H157.388L156.559 32.7445H150.144L155.298 13.579V13.579ZM159.695 32.7445H163.357L167.683 16.6592H170.435L171.263 13.579H164.849L159.695 32.7445V32.7445ZM184.976 19.2009L185.871 15.8705C185.871 15.8705 186.635 13.579 188.969 13.579H192.927C195.127 13.579 194.768 15.876 194.768 15.876L193.433 20.8434C193.003 22.441 191.17 21.9307 190.953 22.7394C190.735 23.5488 192.911 22.7825 192.513 24.2645L190.923 30.1761C190.923 30.1761 190.056 32.7445 187.773 32.7445H183.816C181.578 32.7445 182.039 30.122 182.039 30.122L183.089 26.2162H186.752L185.825 29.6629H187.398L188.85 24.2666H186.173L187.002 21.1858H189.678L190.895 16.6592H189.322L188.639 19.2009H184.976V19.2009ZM213.47 20.6456L214.542 16.6603H219.021L219.85 13.579H211.708L206.554 32.7445H212.993C215.045 32.7445 217.04 26.8422 217.04 26.8422L217.317 25.8135C217.317 25.8135 218.503 20.6456 216.289 20.6456H213.47V20.6456ZM212.641 23.7272H214.215L212.618 29.6629H211.045L212.641 23.7272V23.7272ZM234.532 13.579H238.194L233.041 32.7445H229.378L234.532 13.579V13.579ZM229.298 27.0051L229.549 26.0711C229.549 26.0711 230.752 20.6548 228.544 20.6548H225.769L227.671 13.579H224.009L218.856 32.7438H225.273C227.487 32.7438 229.298 27.0051 229.298 27.0051V27.0051ZM224.921 29.6629H223.347L224.941 23.7355H226.515L224.921 29.6629V29.6629ZM242.113 13.579H251L250.171 16.6592H247.346L243.02 32.7445H239.373L243.699 16.6592H241.284L242.113 13.579ZM206.122 20.6169L207.395 15.8822C207.395 15.8822 207.851 13.579 205.487 13.579H201.507C199.698 13.579 198.511 15.8233 198.511 15.8233L194.694 30.0176C194.694 30.0176 194.248 32.7445 196.331 32.7445H200.4C202.461 32.7445 203.565 30.1241 203.565 30.1241L205.09 24.456H201.426L200.026 29.6629H198.452L201.949 16.6592H203.522L202.458 20.6169H206.122V20.6169ZM174.169 32.7445L175.01 29.6155H173.436L172.594 32.7445H168.932L173.453 15.9312C173.453 15.9312 174.086 13.579 176.568 13.579H182.985L177.831 32.7445H174.169V32.7445ZM178.494 16.6603H176.921L174.266 26.5339H175.839L178.494 16.6603ZM71.1969 32.7445L76.3509 13.579H69.9342C67.4513 13.579 66.8196 15.9312 66.8196 15.9312L62.2985 32.7445H65.961L66.8024 29.6155H68.376L67.5344 32.7445H71.1969V32.7445ZM69.2045 26.5339H67.6311L70.2863 16.6603H71.8595L69.2045 26.5339ZM92.1283 32.7445L92.9697 29.6155H91.3962L90.5547 32.7445H86.8924L91.4136 15.9312C91.4136 15.9312 92.0452 13.579 94.5278 13.579H100.945L95.7908 32.7445H92.1283ZM96.4536 16.6603H94.88L92.2251 26.5339H93.7984L96.4536 16.6603V16.6603ZM142.515 16.8225H144.928L140.603 32.9069H144.251L148.576 16.8225H151.401L152.229 13.7408H143.344L142.515 16.8225V16.8225Z" fill="#0078D2"/>
</g>
<defs>
<clipPath id="clip0_0_1">
<rect width="1440" height="3536" fill="white" transform="translate(-70 -17)"/>
</clipPath>
</defs>
</svg>
