<svg width="48" height="48" viewBox="0 0 48 48" xmlns="http://www.w3.org/2000/svg">
<path fill-rule="evenodd" clip-rule="evenodd" d="M13.0945 5.70306C14.0396 4.77361 15.3652 4 16.6739 4H30.464L42.4541 15.912V38.4968C42.4541 39.5224 41.9848 40.8601 41.1158 41.9422C40.2177 43.0606 38.8132 44 36.9139 44H16.6369C15.2225 44 13.9002 43.1189 13.0031 42.1962C12.534 41.7137 12.1259 41.1655 11.8296 40.6054C11.5409 40.0596 11.3184 39.4268 11.3184 38.7922V9.42936C11.3184 7.98763 12.1416 6.64024 13.0945 5.70306ZM14.6484 7.28309C13.9301 7.9895 13.5344 8.80277 13.5344 9.42936V38.7922C13.5344 38.9333 13.5935 39.2007 13.7884 39.5691C13.9757 39.9231 14.2532 40.3029 14.592 40.6514C15.3109 41.3908 16.0938 41.7839 16.6369 41.7839H36.9139C38.0063 41.7839 38.8179 41.2645 39.3879 40.5546C39.9871 39.8084 40.238 38.9485 40.238 38.4968V17.4811H31.0783C30.3772 17.4811 29.8307 17.1304 29.4882 16.7546C29.1666 16.4016 28.8992 15.8885 28.8992 15.3389V6.21607H16.6739C16.1728 6.21607 15.3746 6.56895 14.6484 7.28309ZM31.1152 7.77075L38.6586 15.265H31.1291C31.1282 15.2641 31.1273 15.2631 31.1263 15.2621C31.1224 15.2578 31.1187 15.2532 31.1152 15.2486V7.77075Z" fill="#E5252A"/>
<path d="M6 22.024C6 21.6161 6.33072 21.2853 6.73869 21.2853H33.3315C33.7395 21.2853 34.0702 21.6161 34.0702 22.024V32.0702C34.0702 32.4782 33.7395 32.8089 33.3315 32.8089H6.73869C6.33072 32.8089 6 32.4782 6 32.0702V22.024Z" fill="#B71D21"/>
<path d="M14.4567 27.9467H12.7362V27.0973H14.4567C14.7813 27.0973 15.0428 27.0324 15.2412 26.9025C15.4432 26.7727 15.5892 26.5923 15.6794 26.3615C15.7732 26.1306 15.8201 25.8673 15.8201 25.5716C15.8201 25.3011 15.7732 25.0468 15.6794 24.8087C15.5892 24.5707 15.4432 24.3795 15.2412 24.2352C15.0428 24.0873 14.7813 24.0134 14.4567 24.0134H12.9418V31.036H11.9463V23.1586H14.4567C14.9652 23.1586 15.3945 23.2614 15.7443 23.467C16.0942 23.6725 16.3593 23.9575 16.5396 24.3218C16.7236 24.6825 16.8156 25.0955 16.8156 25.5608C16.8156 26.0657 16.7236 26.4967 16.5396 26.8538C16.3593 27.2109 16.0942 27.4832 15.7443 27.6708C15.3945 27.8547 14.9652 27.9467 14.4567 27.9467Z" fill="white"/>
<path d="M19.8778 31.036H18.5361L18.5469 30.1866H19.8778C20.3503 30.1866 20.7344 30.0964 21.0302 29.9161C21.326 29.7321 21.5442 29.4616 21.6849 29.1045C21.8255 28.7438 21.8959 28.2984 21.8959 27.7682V26.421C21.8959 26.0026 21.8562 25.6419 21.7768 25.3389C21.6975 25.0359 21.5785 24.7871 21.4198 24.5923C21.2611 24.3975 21.0609 24.2533 20.8192 24.1595C20.5775 24.0621 20.2944 24.0134 19.9698 24.0134H18.509V23.1586H19.9698C20.4134 23.1586 20.8138 23.2289 21.1709 23.3696C21.528 23.5066 21.8345 23.714 22.0906 23.9918C22.3467 24.2659 22.5415 24.6067 22.6749 25.0143C22.812 25.4219 22.8805 25.8944 22.8805 26.4318V27.7682C22.8805 28.3056 22.812 28.7781 22.6749 29.1857C22.5415 29.5932 22.3449 29.9341 22.0852 30.2082C21.8255 30.4823 21.5099 30.6897 21.1384 30.8304C20.7705 30.9675 20.3503 31.036 19.8778 31.036ZM19.0879 23.1586V31.036H18.0924V23.1586H19.0879Z" fill="white"/>
<path d="M25.418 23.1586V31.036H24.4225V23.1586H25.418ZM28.0744 26.7023V27.5572H25.2286V26.7023H28.0744ZM28.5235 23.1586V24.0134H25.2286V23.1586H28.5235Z" fill="white"/>
</svg>
