<svg width="28" height="28" viewBox="0 0 28 28" fill="#000000" xmlns="http://www.w3.org/2000/svg">
<path fill-rule="evenodd" clip-rule="evenodd" d="M12.8333 4.66671C8.32293 4.66671 4.66659 8.32305 4.66659 12.8334C4.66659 17.3437 8.32293 21 12.8333 21C15.0336 21 17.0307 20.1298 18.4992 18.7148C18.5299 18.6749 18.5635 18.6366 18.6 18.6001C18.6365 18.5636 18.6748 18.53 18.7147 18.4994C20.1297 17.0309 20.9999 15.0337 20.9999 12.8334C20.9999 8.32305 17.3436 4.66671 12.8333 4.66671ZM21.0371 19.3873C22.474 17.5911 23.3333 15.3126 23.3333 12.8334C23.3333 7.03438 18.6322 2.33337 12.8333 2.33337C7.03426 2.33337 2.33325 7.03438 2.33325 12.8334C2.33325 18.6324 7.03426 23.3334 12.8333 23.3334C15.3124 23.3334 17.5909 22.4742 19.3872 21.0373L23.675 25.325C24.1306 25.7806 24.8693 25.7806 25.3249 25.325C25.7805 24.8694 25.7805 24.1307 25.3249 23.6751L21.0371 19.3873Z" fill="black"/>
</svg>
